Coordinates
version=1
nRows=21
nColumns=12
inDegrees=yes

Units are S.I. units (second, meters, Newtons, ...)
Angles are in degrees

endheader
time	SC_y	SC_z	SC_x	AC_y	AC_z	AC_x	GH_y	GH_z	GH_yy	EL_x	PS_y
       0.0              -50.77          32.45          73.55          45.96         -4.735         -1.112          46.25          43.36          5.164          108.0          155.9
   0.02424              -50.77          32.45          73.54          45.96         -4.735          -1.11          46.24          43.37           5.18          108.0          155.9
   0.04849              -50.77          32.45          73.53          45.96         -4.735         -1.107          46.22          43.38          5.198          108.0          155.9
   0.07273              -50.77          32.46          73.52          45.96         -4.735         -1.105           46.2          43.38          5.216          108.0          155.9
   0.09697              -50.77          32.46           73.5          45.96         -4.735         -1.102          46.18          43.39          5.236          108.0          155.9
    0.1212              -50.77          32.46          73.49          45.96         -4.735           -1.1          46.16          43.39          5.258          108.0          155.8
    0.1455              -50.77          32.46          73.48          45.96         -4.735         -1.097          46.13           43.4           5.28          108.0          155.8
    0.1697              -50.77          32.46          73.46          45.95         -4.735         -1.093          46.11          43.41          5.305          108.0          155.8
    0.1939              -50.77          32.46          73.45          45.95         -4.735          -1.09          46.08          43.42          5.331          108.0          155.8
    0.2182              -50.77          32.46          73.43          45.95         -4.735         -1.086          46.06          43.43          5.358          108.0          155.8
    0.2424              -50.77          32.47          73.41          45.95         -4.735         -1.082          46.03          43.43          5.388          108.0          155.8
    0.2667              -50.77          32.47          73.39          45.95         -4.734         -1.078          45.99          43.45          5.421          108.0          155.8
    0.2909              -50.77          32.47          73.37          45.94         -4.734         -1.074          45.96          43.46          5.455          108.0          155.8
    0.3152              -50.77          32.47          73.35          45.94         -4.734         -1.069          45.92          43.47          5.493          108.0          155.8
    0.3394              -50.77          32.47          73.33          45.94         -4.734         -1.063          45.88          43.48          5.534          108.0          155.8
    0.3637              -50.77          32.48           73.3          45.93         -4.734         -1.057          45.84          43.49          5.578          107.9          155.8
    0.3879              -50.77          32.48          73.27          45.93         -4.734         -1.051          45.79          43.51          5.625          107.9          155.8
    0.4121              -50.77          32.48          73.24          45.93         -4.733         -1.044          45.73          43.53          5.678          107.9          155.7
    0.4364              -50.77          32.49           73.2          45.92         -4.733         -1.037          45.68          43.54          5.735          107.9          155.7
    0.4606              -50.77          32.49          73.17          45.92         -4.733         -1.029          45.61          43.56          5.797          107.9          155.7
    0.4849              -50.77          32.49          73.13          45.91         -4.733          -1.02          45.55          43.58          5.865          107.9          155.7
